<svg width="125" height="70" viewBox="0 0 125 70" fill="none" xmlns="http://www.w3.org/2000/svg">
<path d="M112.045 0.865266H72.0773V0.0415039H53.9545V0.865266H13.8224C13.4674 0.865266 13.1158 0.935193 12.7878 1.07106C12.4598 1.20692 12.1618 1.40606 11.9107 1.6571C11.6597 1.90814 11.4606 2.20617 11.3247 2.53418C11.1888 2.86218 11.1189 3.21373 11.1189 3.56876V58.2964C11.1189 59.0134 11.4037 59.701 11.9107 60.2081C12.4177 60.7151 13.1054 60.9999 13.8224 60.9999H112.045C112.762 60.9999 113.449 60.7151 113.956 60.2081C114.463 59.701 114.748 59.0134 114.748 58.2964V3.56876C114.748 3.21373 114.678 2.86218 114.542 2.53418C114.407 2.20617 114.207 1.90814 113.956 1.6571C113.705 1.40606 113.407 1.20692 113.079 1.07106C112.751 0.935193 112.4 0.865266 112.045 0.865266Z" fill="#3F3D56"/>
<path d="M111.124 5.64307H14.7434V60.0114H111.124V5.64307Z" fill="#7C35B4"/>
<path d="M62.8511 4.16038C63.397 4.16038 63.8396 3.71781 63.8396 3.17186C63.8396 2.62592 63.397 2.18335 62.8511 2.18335C62.3051 2.18335 61.8625 2.62592 61.8625 3.17186C61.8625 3.71781 62.3051 4.16038 62.8511 4.16038Z" fill="#FFBE18"/>
<path opacity="0.1" d="M83.5605 60.0116H14.7434V5.64331L83.5605 60.0116Z" fill="black"/>
<path d="M29.8239 55.943C34.9405 55.943 39.0883 51.7952 39.0883 46.6787C39.0883 41.5621 34.9405 37.4143 29.8239 37.4143C24.7074 37.4143 20.5596 41.5621 20.5596 46.6787C20.5596 51.7952 24.7074 55.943 29.8239 55.943Z" fill="#F2F2F2"/>
<path d="M94.3421 34.9644H85.3391V36.8456H94.3421V34.9644Z" fill="#3F3D56"/>
<path d="M105.226 20.3179H74.4551V21.1241H105.226V20.3179Z" fill="#3F3D56"/>
<path d="M105.226 22.8708H74.4551V23.6771H105.226V22.8708Z" fill="#3F3D56"/>
<path d="M105.226 25.4241H74.4551V26.2303H105.226V25.4241Z" fill="#3F3D56"/>
<path d="M105.226 27.9771H74.4551V28.7833H105.226V27.9771Z" fill="#3F3D56"/>
<path d="M105.226 30.53H74.4551V31.3363H105.226V30.53Z" fill="#3F3D56"/>
<path d="M105.226 6.74609H101.464V10.5085H105.226V6.74609Z" fill="#F2F2F2"/>
<path d="M106.973 12.2554H102.405V7.68677H106.973V12.2554ZM102.603 12.0568H106.775V7.88541H102.603V12.0568Z" fill="#3F3D56"/>
<path d="M117.454 59.023H108.048V58.3453C108.048 58.3277 108.045 58.3102 108.038 58.2939C108.031 58.2776 108.021 58.2628 108.009 58.2503C107.996 58.2378 107.981 58.2279 107.965 58.2212C107.949 58.2144 107.931 58.2109 107.914 58.2109H104.689C104.671 58.2109 104.654 58.2144 104.637 58.2212C104.621 58.2279 104.606 58.2378 104.594 58.2503C104.581 58.2628 104.571 58.2776 104.565 58.2939C104.558 58.3102 104.554 58.3277 104.554 58.3453V59.023H102.539V58.3453C102.539 58.3277 102.535 58.3102 102.529 58.2939C102.522 58.2776 102.512 58.2628 102.5 58.2503C102.487 58.2378 102.472 58.2279 102.456 58.2212C102.44 58.2144 102.422 58.2109 102.405 58.2109H99.1796C99.1619 58.2109 99.1444 58.2144 99.1281 58.2212C99.1118 58.2279 99.097 58.2378 99.0845 58.2503C99.0721 58.2628 99.0622 58.2776 99.0554 58.2939C99.0487 58.3102 99.0452 58.3277 99.0452 58.3453V59.023H97.0296V58.3453C97.0296 58.3277 97.0261 58.3102 97.0194 58.2939C97.0126 58.2776 97.0027 58.2628 96.9902 58.2503C96.9778 58.2378 96.963 58.2279 96.9467 58.2212C96.9304 58.2144 96.9129 58.2109 96.8952 58.2109H93.6703C93.6526 58.2109 93.6352 58.2144 93.6189 58.2212C93.6026 58.2279 93.5878 58.2378 93.5753 58.2503C93.5628 58.2628 93.5529 58.2776 93.5462 58.2939C93.5394 58.3102 93.5359 58.3277 93.5359 58.3453V59.023H91.5203V58.3453C91.5203 58.3277 91.5169 58.3102 91.5101 58.2939C91.5033 58.2776 91.4934 58.2628 91.481 58.2503C91.4685 58.2378 91.4537 58.2279 91.4374 58.2212C91.4211 58.2144 91.4036 58.2109 91.386 58.2109H88.161C88.1434 58.2109 88.1259 58.2144 88.1096 58.2212C88.0933 58.2279 88.0785 58.2378 88.066 58.2503C88.0535 58.2628 88.0436 58.2776 88.0369 58.2939C88.0301 58.3102 88.0266 58.3277 88.0266 58.3453V59.023H86.0111V58.3453C86.0111 58.3277 86.0076 58.3102 86.0008 58.2939C85.9941 58.2776 85.9842 58.2628 85.9717 58.2503C85.9592 58.2378 85.9444 58.2279 85.9281 58.2212C85.9118 58.2144 85.8943 58.2109 85.8767 58.2109H82.6517C82.6341 58.2109 82.6166 58.2144 82.6003 58.2212C82.584 58.2279 82.5692 58.2378 82.5567 58.2503C82.5443 58.2628 82.5343 58.2776 82.5276 58.2939C82.5208 58.3102 82.5174 58.3277 82.5174 58.3453V59.023H80.5018V58.3453C80.5018 58.3277 80.4983 58.3102 80.4916 58.2939C80.4848 58.2776 80.4749 58.2628 80.4624 58.2503C80.4499 58.2378 80.4351 58.2279 80.4188 58.2212C80.4025 58.2144 80.3851 58.2109 80.3674 58.2109H77.1425C77.1248 58.2109 77.1073 58.2144 77.091 58.2212C77.0747 58.2279 77.0599 58.2378 77.0474 58.2503C77.035 58.2628 77.0251 58.2776 77.0183 58.2939C77.0116 58.3102 77.0081 58.3277 77.0081 58.3453V59.023H74.9925V58.3453C74.9925 58.3277 74.989 58.3102 74.9823 58.2939C74.9755 58.2776 74.9656 58.2628 74.9531 58.2503C74.9407 58.2378 74.9259 58.2279 74.9096 58.2212C74.8932 58.2144 74.8758 58.2109 74.8581 58.2109H49.5961C49.5785 58.2109 49.561 58.2144 49.5447 58.2212C49.5284 58.2279 49.5136 58.2378 49.5011 58.2503C49.4886 58.2628 49.4787 58.2776 49.472 58.2939C49.4652 58.3102 49.4617 58.3277 49.4617 58.3453V59.023H47.4461V58.3453C47.4461 58.3277 47.4427 58.3102 47.4359 58.2939C47.4292 58.2776 47.4193 58.2628 47.4068 58.2503C47.3943 58.2378 47.3795 58.2279 47.3632 58.2212C47.3469 58.2144 47.3294 58.2109 47.3118 58.2109H44.0868C44.0692 58.2109 44.0517 58.2144 44.0354 58.2212C44.0191 58.2279 44.0043 58.2378 43.9918 58.2503C43.9793 58.2628 43.9694 58.2776 43.9627 58.2939C43.9559 58.3102 43.9524 58.3277 43.9524 58.3453V59.023H41.9369V58.3453C41.9369 58.3277 41.9334 58.3102 41.9266 58.2939C41.9199 58.2776 41.91 58.2628 41.8975 58.2503C41.885 58.2378 41.8702 58.2279 41.8539 58.2212C41.8376 58.2144 41.8201 58.2109 41.8025 58.2109H38.5775C38.5599 58.2109 38.5424 58.2144 38.5261 58.2212C38.5098 58.2279 38.495 58.2378 38.4825 58.2503C38.47 58.2628 38.4602 58.2776 38.4534 58.2939C38.4466 58.3102 38.4432 58.3277 38.4432 58.3453V59.023H36.4276V58.3453C36.4276 58.3277 36.4241 58.3102 36.4174 58.2939C36.4106 58.2776 36.4007 58.2628 36.3882 58.2503C36.3758 58.2378 36.3609 58.2279 36.3446 58.2212C36.3283 58.2144 36.3109 58.2109 36.2932 58.2109H33.0683C33.0506 58.2109 33.0332 58.2144 33.0168 58.2212C33.0005 58.2279 32.9857 58.2378 32.9733 58.2503C32.9608 58.2628 32.9509 58.2776 32.9441 58.2939C32.9374 58.3102 32.9339 58.3277 32.9339 58.3453V59.023H30.9183V58.3453C30.9183 58.3277 30.9148 58.3102 30.9081 58.2939C30.9013 58.2776 30.8914 58.2628 30.879 58.2503C30.8665 58.2378 30.8517 58.2279 30.8354 58.2212C30.8191 58.2144 30.8016 58.2109 30.7839 58.2109H27.559C27.5414 58.2109 27.5239 58.2144 27.5076 58.2212C27.4913 58.2279 27.4765 58.2378 27.464 58.2503C27.4515 58.2628 27.4416 58.2776 27.4349 58.2939C27.4281 58.3102 27.4246 58.3277 27.4246 58.3453V59.023H25.409V58.3453C25.409 58.3277 25.4056 58.3102 25.3988 58.2939C25.3921 58.2776 25.3822 58.2628 25.3697 58.2503C25.3572 58.2378 25.3424 58.2279 25.3261 58.2212C25.3098 58.2144 25.2923 58.2109 25.2747 58.2109H22.0497C22.0321 58.2109 22.0146 58.2144 21.9983 58.2212C21.982 58.2279 21.9672 58.2378 21.9547 58.2503C21.9422 58.2628 21.9323 58.2776 21.9256 58.2939C21.9188 58.3102 21.9154 58.3277 21.9154 58.3453V59.023H19.8998V58.3453C19.8998 58.3277 19.8963 58.3102 19.8895 58.2939C19.8828 58.2776 19.8729 58.2628 19.8604 58.2503C19.8479 58.2378 19.8331 58.2279 19.8168 58.2212C19.8005 58.2144 19.783 58.2109 19.7654 58.2109H16.5405C16.5228 58.2109 16.5053 58.2144 16.489 58.2212C16.4727 58.2279 16.4579 58.2378 16.4454 58.2503C16.433 58.2628 16.4231 58.2776 16.4163 58.2939C16.4096 58.3102 16.4061 58.3277 16.4061 58.3453V59.023H10.2249C9.36963 59.023 8.54936 59.3628 7.94456 59.9676C7.33977 60.5724 7 61.3926 7 62.2479V63.7062C7 64.5615 7.33977 65.3818 7.94457 65.9866C8.54936 66.5914 9.36964 66.9311 10.2249 66.9311H117.454C118.31 66.9311 119.13 66.5914 119.735 65.9866C120.339 65.3818 120.679 64.5615 120.679 63.7062V62.2479C120.679 61.3926 120.339 60.5724 119.735 59.9676C119.13 59.3628 118.31 59.023 117.454 59.023Z" fill="#3F3D56"/>
<path d="M32.0665 52.4651C29.7574 52.4651 27.5001 51.7803 25.5802 50.4975C23.6602 49.2146 22.1637 47.3912 21.2801 45.2578C20.3964 43.1244 20.1652 40.777 20.6157 38.5122C21.0662 36.2474 22.1781 34.1671 23.8109 32.5343C25.4437 30.9015 27.5241 29.7896 29.7888 29.3391C32.0536 28.8886 34.4011 29.1198 36.5344 30.0035C38.6678 30.8871 40.4912 32.3836 41.7741 34.3035C43.0569 36.2235 43.7417 38.4808 43.7417 40.7899C43.7382 43.8853 42.507 46.8529 40.3182 49.0416C38.1295 51.2304 35.1619 52.4616 32.0665 52.4651ZM32.0665 29.422C29.8182 29.422 27.6203 30.0887 25.7508 31.3378C23.8814 32.587 22.4243 34.3624 21.5639 36.4396C20.7035 38.5168 20.4784 40.8025 20.917 43.0077C21.3557 45.2128 22.4384 47.2384 24.0282 48.8282C25.618 50.4181 27.6436 51.5008 29.8487 51.9394C32.0539 52.378 34.3396 52.1529 36.4168 51.2925C38.494 50.4321 40.2695 48.975 41.5186 47.1056C42.7677 45.2361 43.4344 43.0383 43.4344 40.7899C43.431 37.776 42.2322 34.8865 40.1011 32.7553C37.9699 30.6242 35.0804 29.4254 32.0665 29.422Z" fill="#3F3D56"/>
</svg>
