<svg width="400" height="317" viewBox="0 0 400 317" fill="none" xmlns="http://www.w3.org/2000/svg">
<g clip-path="url(#clip0_125_49)">
<path d="M46.8646 238.398C46.5222 238.414 46.1833 238.324 45.8937 238.141C45.6042 237.957 45.378 237.689 45.2457 237.373C45.1135 237.057 45.0817 236.708 45.1546 236.373C45.2275 236.038 45.4015 235.734 45.6532 235.501C45.6954 235.334 45.7256 235.213 45.7677 235.046C45.7526 235.009 45.7375 234.973 45.7222 234.936C45.3773 234.122 44.7994 233.427 44.061 232.94C43.3226 232.453 42.4567 232.194 41.572 232.198C40.6874 232.201 39.8234 232.466 39.0887 232.958C38.3539 233.451 37.7811 234.15 37.4423 234.967C36.0881 238.229 34.3639 241.496 33.9394 244.945C33.7524 246.469 33.8313 248.014 34.1725 249.512C30.9918 242.573 29.3402 235.032 29.3295 227.4C29.3289 225.484 29.4353 223.57 29.6483 221.667C29.8243 220.107 30.0685 218.557 30.3809 217.019C32.0857 208.673 35.746 200.85 41.0611 194.193C43.6336 192.79 45.714 190.631 47.022 188.009C47.4958 187.066 47.8307 186.06 48.0163 185.021C47.7261 185.059 47.4311 185.083 47.141 185.102C47.0506 185.107 46.9554 185.112 46.865 185.116L46.8309 185.118C46.512 185.132 46.1957 185.054 45.9202 184.893C45.6446 184.732 45.4216 184.494 45.2779 184.209C45.1342 183.924 45.0759 183.603 45.1102 183.286C45.1444 182.969 45.2696 182.668 45.4708 182.42C45.5961 182.266 45.7215 182.112 45.8469 181.958C46.0372 181.72 46.2323 181.487 46.4226 181.249C46.4445 181.226 46.4652 181.202 46.4844 181.177C46.7033 180.906 46.9221 180.64 47.1409 180.369C46.7415 179.749 46.2042 179.229 45.571 178.851C43.3779 177.567 40.3522 178.456 38.768 180.44C37.1791 182.424 36.8794 185.207 37.4312 187.685C37.9739 189.794 38.8716 191.796 40.0858 193.604C39.9669 193.756 39.8432 193.903 39.7242 194.055C37.5501 196.851 35.6552 199.853 34.0667 203.018C34.453 199.472 33.992 195.885 32.7215 192.552C31.4338 189.446 29.0203 186.83 26.895 184.144C24.342 180.919 19.1071 182.327 18.6573 186.415C18.653 186.455 18.6487 186.495 18.6446 186.534C18.9603 186.712 19.2693 186.901 19.5716 187.101C19.9515 187.355 20.2458 187.718 20.416 188.142C20.5862 188.565 20.6245 189.031 20.5256 189.477C20.4268 189.923 20.1956 190.329 19.8623 190.641C19.5289 190.953 19.109 191.158 18.6575 191.227L18.6113 191.234C18.7237 192.372 18.9225 193.5 19.2059 194.607C20.0271 197.699 21.4783 200.589 23.4684 203.094C25.4585 205.599 27.9446 207.666 30.771 209.165C30.9565 209.26 31.1373 209.355 31.3228 209.445C29.7269 213.968 28.7258 218.679 28.3448 223.46C28.129 226.281 28.1418 229.115 28.3828 231.933L28.3685 231.833C27.7596 228.699 26.0876 225.871 23.635 223.827C19.9923 220.834 14.8458 219.732 10.9159 217.327C10.4983 217.059 10.0127 216.916 9.51634 216.915C9.02002 216.914 8.5337 217.054 8.11475 217.32C7.6958 217.586 7.36169 217.967 7.15182 218.417C6.94195 218.866 6.86507 219.367 6.93026 219.859C6.93553 219.894 6.94089 219.929 6.94633 219.964C7.53216 220.202 8.10255 220.477 8.65419 220.787C8.96988 220.965 9.27891 221.154 9.58126 221.354C9.96109 221.608 10.2554 221.97 10.4256 222.394C10.5959 222.818 10.6341 223.284 10.5353 223.73C10.4365 224.176 10.2053 224.581 9.8719 224.894C9.53855 225.206 9.11863 225.41 8.66715 225.48L8.62089 225.487C8.58758 225.492 8.55905 225.497 8.52579 225.501C9.52675 227.891 10.9316 230.091 12.6789 232.005C14.8374 234.321 17.4462 236.172 20.3453 237.444C23.2445 238.716 26.3729 239.382 29.5388 239.402H29.5436C30.403 243.137 31.6482 246.772 33.2591 250.249H46.532C46.5796 250.101 46.6224 249.949 46.6652 249.802C45.4366 249.879 44.2032 249.805 42.9925 249.583C43.9773 248.374 44.9621 247.157 45.9468 245.948C45.9688 245.926 45.9894 245.902 46.0087 245.877C46.5082 245.258 47.0125 244.645 47.512 244.026L47.5123 244.026C47.5389 242.13 47.3213 240.239 46.865 238.398L46.8646 238.398Z" fill="#F2F2F2"/>
<path d="M203.393 250.428C203.393 250.501 203.379 250.572 203.352 250.639C203.324 250.706 203.284 250.767 203.232 250.818C203.181 250.869 203.121 250.91 203.054 250.937C202.987 250.965 202.915 250.979 202.843 250.979H0.5505C0.404499 250.979 0.264482 250.921 0.161244 250.817C0.0580052 250.714 0 250.574 0 250.428C0 250.282 0.0580052 250.142 0.161244 250.039C0.264482 249.936 0.404499 249.878 0.5505 249.878H202.843C202.915 249.877 202.987 249.892 203.054 249.919C203.121 249.947 203.181 249.987 203.232 250.038C203.284 250.09 203.324 250.15 203.352 250.217C203.379 250.284 203.393 250.356 203.393 250.428Z" fill="#CCCCCC"/>
<path d="M105.928 179.714C105.166 179.532 104.374 179.519 103.606 179.676C102.839 179.833 102.115 180.156 101.486 180.623C100.857 181.091 100.339 181.69 99.9664 182.379C99.5941 183.068 99.3776 183.831 99.3319 184.613L87.7673 188.638L88.4991 196.262L104.751 190.349C106.069 190.338 107.339 189.845 108.318 188.961C109.297 188.077 109.918 186.865 110.063 185.554C110.208 184.244 109.868 182.925 109.105 181.849C108.343 180.772 107.213 180.013 105.928 179.714V179.714Z" fill="#FFB6B6"/>
<path d="M87.0807 201.875C82.4823 205.08 74.3813 206.719 63.3558 206.644C62.7454 206.646 62.1413 206.52 61.5818 206.276C61.0222 206.032 60.5195 205.675 60.1053 205.227C57.1552 202.154 57.2704 195.142 57.2888 194.464L54.0552 182.278C53.9859 182.092 52.196 177.092 54.0169 173.6C54.4044 172.871 54.9451 172.234 55.6019 171.733C56.2588 171.233 57.0162 170.88 57.8222 170.7C64.6606 168.886 71.089 187.191 71.9059 189.609L81.5026 187.975L88.1301 187.702L94.8728 183.981L98.6691 193.066L89.2743 199.932C88.6261 200.668 87.8893 201.32 87.0807 201.875Z" fill="#1B1E32"/>
<path d="M105.598 302.636L112.667 302.967L117.305 275.858L106.872 275.37L105.598 302.636Z" fill="#FFB6B6"/>
<path d="M104.008 299.067L115.214 298.923L114.99 303.711L125.271 311.545C125.778 311.932 126.149 312.471 126.329 313.083C126.509 313.696 126.488 314.35 126.27 314.95C126.052 315.55 125.647 316.064 125.116 316.418C124.585 316.772 123.954 316.947 123.316 316.917L110.012 316.295L107.941 311.452L106.824 316.146L101.808 315.911L104.008 299.067Z" fill="#080913"/>
<path d="M179.403 244.43L181.979 237.838L157.779 224.768L145.555 232.452L179.403 244.43Z" fill="#FFB6B6"/>
<path d="M175.513 244.794L178.963 234.131L183.427 235.876L194.139 228.643C194.668 228.285 195.298 228.107 195.936 228.132C196.574 228.158 197.186 228.387 197.685 228.786C198.184 229.185 198.542 229.732 198.707 230.349C198.872 230.966 198.836 231.619 198.603 232.213L193.756 244.619L188.505 245.031L192.595 247.592L190.767 252.269L175.513 244.794Z" fill="#080913"/>
<path d="M40.3835 224.812C40.3835 224.812 43.3194 243.555 57.1976 244.942C71.0757 246.33 83.8683 240.078 83.8683 240.078L122.727 228.11C122.727 228.11 164.059 239.854 170.998 241.704C170.998 241.704 175.785 230.84 175.624 230.139C174.148 223.682 172.226 228.05 172.226 228.05L128.278 208.621C128.278 208.621 121.339 206.77 109.312 211.859C97.2839 216.948 65.0618 229.214 65.0618 229.214L40.3835 224.812Z" fill="#2F2E41"/>
<path d="M40.5436 223.663C40.5436 223.663 38.2292 246.116 51.7481 249.546C64.5991 252.807 82.3254 249.462 82.3254 249.462L103.458 247.256C103.458 247.256 104.383 274.408 104.383 287.824C108.677 288.407 113.003 288.716 117.336 288.749C118.261 288.749 118.323 288.264 118.323 288.264L120.114 241.336C120.24 239.296 119.937 237.252 119.225 235.335C118.514 233.419 117.409 231.673 115.981 230.21C114.554 228.746 112.836 227.598 110.938 226.838C109.04 226.079 107.005 225.725 104.962 225.8C103.964 225.838 102.918 225.908 101.822 226.012C88.8221 227.258 72.6827 224.608 72.6827 224.608L40.5436 223.663Z" fill="#2F2E41"/>
<path d="M78.0417 191.09C78.0417 191.09 83.53 224.279 79.821 226.928C76.1121 229.578 71.0257 229.588 71.0257 229.588L69.843 211.263L78.0417 191.09Z" fill="#1B1E32"/>
<path d="M68.8879 150.329L76.2261 157.302C79.6368 160.543 81.8976 164.808 82.6657 169.45C83.4337 174.092 82.667 178.858 80.4819 183.025L76.9742 189.714L68.8879 150.329Z" fill="#1B1E32"/>
<path d="M67.247 151.502L77.1901 162.827C79.3723 165.313 80.7247 168.417 81.0586 171.708C81.2102 173.202 81.1492 174.711 80.8775 176.188L77.1303 196.558L74.3138 225.976C74.3138 225.976 52.5698 232.564 50.3442 222.391C48.1186 212.217 67.247 151.502 67.247 151.502Z" fill="#7C35B4"/>
<path d="M57.9137 228.741C43.6201 226.359 40.1187 225.886 39.9006 225.802L39.6821 225.719L41.1148 217.122L47.1646 202.256C47.5575 197.393 50.1057 190.805 48.6479 185.512C44.4101 170.128 51.2952 148.387 54.4438 146.722L63.1728 140.999L66.2369 143.809L71.5496 151.246C75.9208 170.717 78.9398 188.866 78.793 189.975L76.0951 209.038L72.9161 216.35C63.2718 221.003 69.757 230.714 57.9137 228.741Z" fill="#1B1E32"/>
<path d="M83.792 214.756L106.235 208.751L108.211 208.283L109.62 207.948L111.262 207.56L111.275 207.557C111.514 207.502 111.764 207.544 111.972 207.673L120.305 217.664C120.381 217.71 120.447 217.77 120.501 217.84C120.524 217.858 120.544 217.879 120.561 217.902C120.653 218.028 120.713 218.175 120.735 218.329C120.757 218.484 120.741 218.641 120.688 218.788C120.635 218.934 120.547 219.066 120.431 219.17C120.316 219.275 120.176 219.35 120.025 219.387L86.5446 227.092C86.3712 227.131 86.1901 227.121 86.0224 227.062C85.8546 227.002 85.7071 226.897 85.5967 226.757L85.257 226.317L83.4042 217.395L83.2724 216.237C83.1884 216.13 83.129 216.005 83.0987 215.873C83.0449 215.633 83.0873 215.381 83.217 215.172C83.3467 214.964 83.5532 214.814 83.792 214.756Z" fill="#E6E6E6"/>
<path opacity="0.17" d="M85.2568 226.316L85.5986 226.758C85.7087 226.897 85.8559 227.002 86.0231 227.062C86.1904 227.121 86.371 227.132 86.5441 227.093L120.025 219.388C120.177 219.35 120.316 219.276 120.432 219.171C120.548 219.067 120.636 218.935 120.689 218.789C120.742 218.642 120.758 218.484 120.735 218.33C120.713 218.176 120.653 218.029 120.56 217.904C120.544 217.88 120.524 217.859 120.502 217.841L85.2568 226.316Z" fill="black"/>
<path d="M111.095 207.495L110.489 164.812C110.464 164.555 110.542 164.299 110.705 164.099L114.995 155.17L115.441 154.629C115.607 154.431 115.843 154.306 116.1 154.28L117.034 154.193C117.291 154.168 117.548 154.246 117.748 154.41C117.948 154.574 118.074 154.81 118.099 155.068L118.94 200.229L118.941 200.232L119.358 204.58L119.851 209.744L119.853 209.751L120.624 217.784C120.638 217.922 120.622 218.061 120.578 218.191C120.533 218.322 120.461 218.442 120.366 218.542C120.273 218.643 120.16 218.723 120.033 218.778C119.907 218.832 119.77 218.858 119.633 218.856L119.025 218.843C118.792 218.837 118.569 218.749 118.394 218.595L118.055 218.289L117.897 218.146L111.417 208.129C111.233 207.966 111.118 207.739 111.095 207.495Z" fill="#E6E6E6"/>
<path opacity="0.17" d="M114.997 155.171L117.896 218.148L118.055 218.289L118.393 218.594C118.568 218.749 118.791 218.837 119.025 218.843L119.633 218.855C119.771 218.857 119.907 218.83 120.034 218.776C120.16 218.722 120.274 218.642 120.368 218.541C120.461 218.44 120.532 218.32 120.576 218.19C120.62 218.06 120.637 217.921 120.624 217.784L118.098 155.069C118.073 154.812 117.947 154.575 117.748 154.41C117.548 154.246 117.292 154.167 117.034 154.192L116.099 154.281C115.972 154.293 115.848 154.33 115.736 154.39C115.623 154.45 115.523 154.531 115.443 154.63L114.997 155.171Z" fill="black"/>
<path d="M115.241 157.715L111.317 167.4L111.803 196.371L116.05 202.514L115.241 157.715Z" fill="#7C35B4"/>
<path d="M86.3786 214.5C86.1639 214.562 85.9823 214.706 85.8737 214.901C85.7651 215.096 85.7384 215.326 85.7995 215.541L87.5279 222.744L89.1474 222.283L87.419 215.08C87.3578 214.865 87.2138 214.683 87.0187 214.575C86.8236 214.466 86.5934 214.439 86.3786 214.5Z" fill="#2F2E41"/>
<path d="M89.6176 213.578C89.4029 213.639 89.2213 213.783 89.1127 213.978C89.0041 214.173 88.9774 214.404 89.0385 214.618L89.4074 215.914L91.0269 215.453L90.658 214.157C90.5968 213.943 90.4528 213.761 90.2577 213.652C90.0626 213.544 89.8324 213.517 89.6176 213.578Z" fill="#2F2E41"/>
<path d="M92.8567 212.656C92.6419 212.717 92.4603 212.861 92.3517 213.056C92.2431 213.251 92.2164 213.481 92.2775 213.696L92.6464 214.992L94.2659 214.53L93.897 213.235C93.8358 213.02 93.6918 212.838 93.4967 212.73C93.3016 212.621 93.0714 212.595 92.8567 212.656Z" fill="#2F2E41"/>
<path d="M96.0957 211.733C95.881 211.795 95.6993 211.939 95.5907 212.134C95.4821 212.329 95.4554 212.559 95.5165 212.774L95.8854 214.069L97.505 213.608L97.136 212.312C97.0748 212.098 96.9308 211.916 96.7357 211.808C96.5407 211.699 96.3104 211.672 96.0957 211.733Z" fill="#2F2E41"/>
<path d="M99.3349 210.811C99.1202 210.872 98.9386 211.016 98.83 211.211C98.7214 211.407 98.6947 211.637 98.7558 211.852L99.1247 213.147L100.744 212.686L100.375 211.39C100.314 211.176 100.17 210.994 99.975 210.885C99.7799 210.777 99.5497 210.75 99.3349 210.811Z" fill="#2F2E41"/>
<path d="M102.574 209.889C102.359 209.95 102.178 210.094 102.069 210.289C101.96 210.484 101.934 210.714 101.995 210.929L102.364 212.225L103.983 211.764L103.614 210.468C103.553 210.253 103.409 210.072 103.214 209.963C103.019 209.854 102.789 209.828 102.574 209.889Z" fill="#2F2E41"/>
<path d="M105.813 208.966C105.598 209.028 105.417 209.172 105.308 209.367C105.199 209.562 105.173 209.792 105.234 210.007L105.603 211.302L107.222 210.841L106.853 209.546C106.792 209.331 106.648 209.149 106.453 209.041C106.258 208.932 106.028 208.905 105.813 208.966Z" fill="#2F2E41"/>
<path d="M109.052 208.044C108.837 208.105 108.656 208.249 108.547 208.444C108.438 208.639 108.412 208.87 108.473 209.084L108.842 210.38L110.461 209.919L110.092 208.623C110.031 208.409 109.887 208.227 109.692 208.118C109.497 208.01 109.267 207.983 109.052 208.044Z" fill="#2F2E41"/>
<path d="M90.2973 216.532C90.0826 216.593 89.901 216.737 89.7924 216.932C89.6838 217.127 89.6571 217.357 89.7182 217.572L90.0871 218.868L91.7066 218.407L91.3377 217.111C91.2765 216.896 91.1325 216.715 90.9374 216.606C90.7423 216.498 90.5121 216.471 90.2973 216.532Z" fill="#2F2E41"/>
<path d="M93.5364 215.61C93.3216 215.671 93.14 215.815 93.0314 216.01C92.9228 216.205 92.8961 216.435 92.9572 216.65L93.3261 217.945L94.9456 217.484L94.5767 216.189C94.5155 215.974 94.3715 215.792 94.1764 215.684C93.9813 215.575 93.7511 215.548 93.5364 215.61Z" fill="#2F2E41"/>
<path d="M96.7756 214.687C96.5609 214.748 96.3793 214.892 96.2707 215.087C96.1621 215.283 96.1354 215.513 96.1964 215.727L96.5653 217.023L98.1849 216.562L97.816 215.266C97.7547 215.052 97.6108 214.87 97.4157 214.761C97.2206 214.653 96.9904 214.626 96.7756 214.687Z" fill="#2F2E41"/>
<path d="M100.015 213.765C99.7999 213.826 99.6183 213.97 99.5097 214.165C99.4011 214.36 99.3744 214.591 99.4354 214.805L99.8044 216.101L101.424 215.64L101.055 214.344C100.994 214.13 100.85 213.948 100.655 213.839C100.46 213.731 100.229 213.704 100.015 213.765Z" fill="#2F2E41"/>
<path d="M103.254 212.843C103.039 212.904 102.857 213.048 102.749 213.243C102.64 213.438 102.613 213.668 102.674 213.883L103.043 215.179L104.663 214.718L104.294 213.422C104.233 213.207 104.089 213.026 103.894 212.917C103.699 212.808 103.468 212.782 103.254 212.843Z" fill="#2F2E41"/>
<path d="M106.493 211.92C106.278 211.982 106.096 212.126 105.988 212.321C105.879 212.516 105.852 212.746 105.913 212.961L106.282 214.256L107.902 213.795L107.533 212.5C107.472 212.285 107.328 212.103 107.133 211.995C106.938 211.886 106.707 211.859 106.493 211.92Z" fill="#2F2E41"/>
<path d="M109.732 210.998C109.517 211.059 109.336 211.203 109.227 211.398C109.118 211.593 109.092 211.824 109.153 212.038L109.522 213.334L111.141 212.873L110.772 211.577C110.711 211.362 110.567 211.181 110.372 211.072C110.177 210.964 109.947 210.937 109.732 210.998Z" fill="#2F2E41"/>
<path d="M90.977 219.486C90.7623 219.547 90.5807 219.691 90.4721 219.886C90.3635 220.081 90.3368 220.311 90.3978 220.526L90.7668 221.822L92.3863 221.361L92.0174 220.065C91.9562 219.85 91.8122 219.669 91.6171 219.56C91.422 219.451 91.1918 219.425 90.977 219.486Z" fill="#2F2E41"/>
<path d="M94.2163 218.563C94.0016 218.625 93.8199 218.769 93.7113 218.964C93.6027 219.159 93.576 219.389 93.6371 219.604L94.006 220.899L95.6256 220.438L95.2566 219.143C95.1954 218.928 95.0514 218.746 94.8564 218.638C94.6613 218.529 94.431 218.502 94.2163 218.563Z" fill="#2F2E41"/>
<path d="M97.4553 217.641C97.2406 217.702 97.059 217.846 96.9503 218.041C96.8417 218.236 96.815 218.467 96.8761 218.681L97.245 219.977L98.8646 219.516L98.4956 218.22C98.4344 218.005 98.2904 217.824 98.0954 217.715C97.9003 217.607 97.6701 217.58 97.4553 217.641Z" fill="#2F2E41"/>
<path d="M100.694 216.719C100.48 216.78 100.298 216.924 100.189 217.119C100.081 217.314 100.054 217.544 100.115 217.759L100.484 219.055L102.104 218.593L101.735 217.298C101.673 217.083 101.529 216.901 101.334 216.793C101.139 216.684 100.909 216.658 100.694 216.719Z" fill="#2F2E41"/>
<path d="M103.934 215.797C103.719 215.858 103.537 216.002 103.429 216.197C103.32 216.392 103.293 216.622 103.354 216.837L103.723 218.133L105.343 217.671L104.974 216.376C104.913 216.161 104.769 215.979 104.574 215.871C104.379 215.762 104.148 215.735 103.934 215.797Z" fill="#2F2E41"/>
<path d="M107.173 214.874C106.958 214.935 106.776 215.079 106.668 215.274C106.559 215.47 106.532 215.7 106.593 215.915L106.962 217.21L108.582 216.749L108.213 215.453C108.152 215.239 108.008 215.057 107.813 214.948C107.618 214.84 107.387 214.813 107.173 214.874Z" fill="#2F2E41"/>
<path d="M110.412 213.952C110.197 214.013 110.015 214.157 109.907 214.352C109.798 214.547 109.771 214.777 109.832 214.992L110.201 216.288L111.821 215.827L111.452 214.531C111.391 214.316 111.247 214.135 111.052 214.026C110.857 213.917 110.626 213.891 110.412 213.952Z" fill="#2F2E41"/>
<path d="M100.895 208.362C100.461 207.71 99.8887 207.161 99.2192 206.754C98.5498 206.348 97.7993 206.092 97.0206 206.007C96.242 205.922 95.454 206.008 94.7123 206.26C93.9706 206.512 93.2931 206.923 92.7277 207.466L81.5132 202.549L76.8633 208.635L92.7978 215.356C93.7716 216.246 95.0378 216.747 96.3566 216.765C97.6753 216.784 98.955 216.318 99.9531 215.456C100.951 214.593 101.598 213.395 101.772 212.088C101.946 210.78 101.634 209.455 100.895 208.362Z" fill="#FFB6B6"/>
<path d="M72.0059 211.785C66.4552 211.006 59.4018 206.697 51.3714 199.142C50.9228 198.728 50.5651 198.225 50.321 197.666C50.0768 197.106 49.9515 196.502 49.953 195.892C49.8803 191.633 54.7349 186.572 55.2092 186.088L61.1283 174.956C61.2043 174.772 63.2937 169.889 67.0035 168.568C67.7836 168.297 68.6132 168.198 69.4351 168.278C70.2571 168.358 71.0521 168.615 71.7654 169.031C78.0123 172.353 70.2726 190.143 69.2261 192.472L77.3721 197.802L82.4154 202.11L89.8895 203.969L86.4919 213.211L74.9354 211.853C73.9598 211.951 72.9758 211.928 72.0059 211.785Z" fill="#1B1E32"/>
<path d="M82.9514 127.582C83.887 119.773 78.4533 112.701 70.8149 111.786C63.1766 110.871 56.226 116.459 55.2904 124.268C54.3549 132.076 59.7885 139.148 67.4269 140.063C75.0652 140.979 82.0158 135.39 82.9514 127.582Z" fill="#FFB6B6"/>
<path d="M32.8466 115.359C35.526 112.899 37.0795 109.396 39.3318 106.508C41.5842 103.62 45.1885 101.225 48.5567 102.364C50.8786 103.148 52.4674 105.471 53.1186 107.925C53.7695 110.38 53.6345 112.985 53.4945 115.536C54.0602 110.327 58.0917 105.694 63.0118 104.6C67.9315 103.506 73.3597 106.034 75.8256 110.569C77.2639 109.524 79.0356 109.044 80.8048 109.218C82.574 109.392 84.2177 110.21 85.4244 111.515C87.7938 114.205 87.8401 118.789 85.5262 121.58C83.2124 124.372 78.851 124.992 75.9508 122.943L74.7336 123.82C75.0921 126.052 73.5898 128.459 71.4806 129.03C69.7703 129.494 67.4803 129.108 66.6647 130.747C66.0947 131.892 66.7391 133.265 67.4772 134.285C68.2151 135.306 69.1084 136.376 69.0578 137.66C68.9818 139.598 66.8373 140.705 64.9859 140.894C60.5215 141.349 55.9389 138.758 53.8929 134.621C53.8535 134.542 53.8098 134.461 53.762 134.38C52.5716 132.414 51.7946 130.226 51.4784 127.949C51.1622 125.672 51.3136 123.355 51.9232 121.139C52.1704 120.269 52.1074 119.592 51.5212 119.309C48.9875 118.085 41.3556 119.103 38.9088 120.556C36.4617 122.01 34.3944 124.073 32.0166 125.647C29.6386 127.222 26.7189 128.306 24.0383 127.479C21.8914 126.816 20.2152 124.999 19.1896 122.926C18.1641 120.854 17.7098 118.527 17.3291 116.223C21.8464 119.608 28.6293 119.23 32.8466 115.359Z" fill="#080913"/>
<path d="M399.183 15.9525H189.025C188.806 15.9478 188.598 15.8577 188.445 15.7015C188.292 15.5453 188.207 15.3354 188.207 15.1167C188.207 14.8981 188.292 14.6882 188.445 14.532C188.598 14.3758 188.806 14.2857 189.025 14.281H399.183C399.401 14.2857 399.609 14.3758 399.762 14.532C399.915 14.6882 400.001 14.8981 400.001 15.1167C400.001 15.3354 399.915 15.5453 399.762 15.7015C399.609 15.8577 399.401 15.9478 399.183 15.9525Z" fill="#CACACA"/>
<path d="M203.33 10.0139C206.035 10.0139 208.228 7.77225 208.228 5.00697C208.228 2.2417 206.035 0 203.33 0C200.625 0 198.433 2.2417 198.433 5.00697C198.433 7.77225 200.625 10.0139 203.33 10.0139Z" fill="#E02323"/>
<path d="M220.25 10.0139C222.955 10.0139 225.148 7.77225 225.148 5.00697C225.148 2.2417 222.955 0 220.25 0C217.545 0 215.352 2.2417 215.352 5.00697C215.352 7.77225 217.545 10.0139 220.25 10.0139Z" fill="#FFBE18"/>
<path d="M237.17 10.0139C239.875 10.0139 242.068 7.77225 242.068 5.00697C242.068 2.2417 239.875 0 237.17 0C234.465 0 232.272 2.2417 232.272 5.00697C232.272 7.77225 234.465 10.0139 237.17 10.0139Z" fill="#39B025"/>
<path d="M388.995 1.24097H376.976C376.738 1.24571 376.511 1.34368 376.344 1.51383C376.178 1.68398 376.084 1.91275 376.084 2.15102C376.084 2.38929 376.178 2.61805 376.344 2.78821C376.511 2.95836 376.738 3.05632 376.976 3.06107H388.995C389.233 3.05632 389.46 2.95836 389.627 2.78821C389.794 2.61805 389.887 2.38929 389.887 2.15102C389.887 1.91275 389.794 1.68398 389.627 1.51383C389.46 1.34368 389.233 1.24571 388.995 1.24097Z" fill="#CACACA"/>
<path d="M388.995 4.65698H376.976C376.738 4.66173 376.511 4.75969 376.344 4.92984C376.178 5.09999 376.084 5.32876 376.084 5.56703C376.084 5.8053 376.178 6.03407 376.344 6.20422C376.511 6.37437 376.738 6.47234 376.976 6.47708H388.995C389.233 6.47234 389.46 6.37437 389.627 6.20422C389.794 6.03407 389.887 5.8053 389.887 5.56703C389.887 5.32876 389.794 5.09999 389.627 4.92984C389.46 4.75969 389.233 4.66173 388.995 4.65698Z" fill="#CACACA"/>
<path d="M388.995 8.0686H376.976C376.738 8.07332 376.511 8.17127 376.344 8.34142C376.178 8.51158 376.084 8.74036 376.084 8.97865C376.084 9.21694 376.178 9.44573 376.344 9.61588C376.511 9.78603 376.738 9.88398 376.976 9.8887H388.995C389.234 9.88398 389.461 9.78603 389.627 9.61588C389.794 9.44573 389.888 9.21694 389.888 8.97865C389.888 8.74036 389.794 8.51158 389.627 8.34142C389.461 8.17127 389.234 8.07332 388.995 8.0686Z" fill="#CACACA"/>
<path d="M30.7402 208.036L30.7472 208.027L30.7402 208.046V208.036Z" fill="#2F2E41"/>
<path d="M319.439 48.5201C322.783 48.5201 325.494 45.8091 325.494 42.4649C325.494 39.1207 322.783 36.4097 319.439 36.4097C316.095 36.4097 313.384 39.1207 313.384 42.4649C313.384 45.8091 316.095 48.5201 319.439 48.5201Z" fill="#E6E7E8"/>
<path d="M370.475 55.8731H315.187C314.95 55.8735 314.715 55.8271 314.496 55.7366C314.277 55.6462 314.078 55.5134 313.91 55.346C313.742 55.1785 313.609 54.9796 313.518 54.7607C313.428 54.5417 313.381 54.307 313.381 54.07C313.381 53.8329 313.428 53.5982 313.518 53.3793C313.609 53.1603 313.742 52.9614 313.91 52.7939C314.078 52.6265 314.277 52.4937 314.496 52.4033C314.715 52.3128 314.95 52.2665 315.187 52.2668H370.475C370.712 52.2665 370.946 52.3128 371.166 52.4033C371.385 52.4937 371.584 52.6265 371.751 52.7939C371.919 52.9614 372.052 53.1603 372.143 53.3793C372.234 53.5982 372.281 53.8329 372.281 54.07C372.281 54.307 372.234 54.5417 372.143 54.7607C372.052 54.9796 371.919 55.1785 371.751 55.346C371.584 55.5134 371.385 55.6462 371.166 55.7366C370.946 55.8271 370.712 55.8735 370.475 55.8731Z" fill="#E6E7E8"/>
<path d="M328.919 62.9983H315.187C314.709 62.9983 314.25 62.8083 313.912 62.4701C313.574 62.1319 313.384 61.6733 313.384 61.195C313.384 60.7168 313.574 60.2582 313.912 59.92C314.25 59.5818 314.709 59.3918 315.187 59.3918H328.919C329.397 59.3918 329.855 59.5818 330.194 59.92C330.532 60.2582 330.722 60.7168 330.722 61.195C330.722 61.6733 330.532 62.1319 330.194 62.4701C329.855 62.8083 329.397 62.9983 328.919 62.9983Z" fill="#E6E7E8"/>
<path d="M319.439 143.032C322.783 143.032 325.494 140.321 325.494 136.977C325.494 133.633 322.783 130.922 319.439 130.922C316.095 130.922 313.384 133.633 313.384 136.977C313.384 140.321 316.095 143.032 319.439 143.032Z" fill="#E6E7E8"/>
<path d="M370.475 150.385H315.187C314.709 150.385 314.25 150.195 313.912 149.857C313.574 149.519 313.384 149.06 313.384 148.582C313.384 148.104 313.574 147.645 313.912 147.307C314.25 146.969 314.709 146.779 315.187 146.779H370.475C370.953 146.779 371.411 146.969 371.75 147.307C372.088 147.645 372.278 148.104 372.278 148.582C372.278 149.06 372.088 149.519 371.75 149.857C371.411 150.195 370.953 150.385 370.475 150.385Z" fill="#E6E7E8"/>
<path d="M328.919 157.51H315.187C314.709 157.51 314.25 157.32 313.912 156.982C313.574 156.644 313.384 156.185 313.384 155.707C313.384 155.229 313.574 154.77 313.912 154.432C314.25 154.094 314.709 153.904 315.187 153.904H328.919C329.397 153.904 329.855 154.094 330.194 154.432C330.532 154.77 330.722 155.229 330.722 155.707C330.722 156.185 330.532 156.644 330.194 156.982C329.855 157.32 329.397 157.51 328.919 157.51Z" fill="#E6E7E8"/>
<path d="M221.985 128.69C225.329 128.69 228.04 125.979 228.04 122.635C228.04 119.291 225.329 116.58 221.985 116.58C218.64 116.58 215.929 119.291 215.929 122.635C215.929 125.979 218.64 128.69 221.985 128.69Z" fill="#E6E7E8"/>
<path d="M273.02 136.043H217.733C217.254 136.043 216.796 135.853 216.458 135.515C216.119 135.177 215.929 134.718 215.929 134.24C215.929 133.762 216.119 133.303 216.458 132.965C216.796 132.627 217.254 132.437 217.733 132.437H273.02C273.498 132.437 273.957 132.627 274.295 132.965C274.633 133.303 274.823 133.762 274.823 134.24C274.823 134.718 274.633 135.177 274.295 135.515C273.957 135.853 273.498 136.043 273.02 136.043Z" fill="#E6E7E8"/>
<path d="M231.464 143.168H217.733C217.254 143.168 216.796 142.978 216.458 142.64C216.119 142.302 215.929 141.843 215.929 141.365C215.929 140.886 216.119 140.428 216.458 140.09C216.796 139.751 217.254 139.562 217.733 139.562H231.464C231.943 139.562 232.401 139.751 232.74 140.09C233.078 140.428 233.268 140.886 233.268 141.365C233.268 141.843 233.078 142.302 232.74 142.64C232.401 142.978 231.943 143.168 231.464 143.168Z" fill="#E6E7E8"/>
<path d="M319.439 92.2137C322.783 92.2137 325.494 89.5027 325.494 86.1585C325.494 82.8143 322.783 80.1033 319.439 80.1033C316.095 80.1033 313.384 82.8143 313.384 86.1585C313.384 89.5027 316.095 92.2137 319.439 92.2137Z" fill="#E6E7E8"/>
<path d="M370.475 99.5667H315.187C314.709 99.5667 314.25 99.3767 313.912 99.0386C313.574 98.7004 313.384 98.2418 313.384 97.7636C313.384 97.2853 313.574 96.8267 313.912 96.4886C314.25 96.1504 314.709 95.9604 315.187 95.9604H370.475C370.953 95.9604 371.411 96.1504 371.75 96.4886C372.088 96.8267 372.278 97.2853 372.278 97.7636C372.278 98.2418 372.088 98.7004 371.75 99.0386C371.411 99.3767 370.953 99.5667 370.475 99.5667Z" fill="#E6E7E8"/>
<path d="M348.409 106.692H315.187C314.709 106.692 314.25 106.502 313.912 106.164C313.574 105.826 313.384 105.367 313.384 104.889C313.384 104.41 313.574 103.952 313.912 103.614C314.25 103.275 314.709 103.085 315.187 103.085H348.409C348.888 103.085 349.346 103.275 349.684 103.614C350.023 103.952 350.213 104.41 350.213 104.889C350.213 105.367 350.023 105.826 349.684 106.164C349.346 106.502 348.888 106.692 348.409 106.692Z" fill="#E6E7E8"/>
<path d="M339.153 113.817H315.187C314.709 113.817 314.25 113.627 313.912 113.289C313.574 112.951 313.384 112.492 313.384 112.014C313.384 111.535 313.574 111.077 313.912 110.739C314.25 110.4 314.709 110.21 315.187 110.21H339.153C339.631 110.21 340.09 110.4 340.428 110.739C340.766 111.077 340.956 111.535 340.956 112.014C340.956 112.492 340.766 112.951 340.428 113.289C340.09 113.627 339.631 113.817 339.153 113.817Z" fill="#E6E7E8"/>
<path d="M264.231 46.81V110.385C264.231 110.828 264.055 111.254 263.741 111.567C263.428 111.881 263.002 112.058 262.559 112.059H229.061C225.355 108.623 222.315 104.532 220.093 99.9925C219.946 99.7 219.807 99.4053 219.675 99.1059C217.65 94.7125 216.424 89.9934 216.055 85.1699C216.03 84.8729 216.009 84.5781 215.996 84.2788C215.95 83.5133 215.929 82.7364 215.929 81.9573C215.923 76.771 216.902 71.6307 218.815 66.8102C218.93 66.5109 219.051 66.2138 219.176 65.9191C221.696 59.996 225.569 54.7463 230.485 50.5916C230.777 50.3425 231.073 50.1003 231.371 49.8649L231.44 49.81C235.287 46.7644 240.053 45.1145 244.96 45.1305H262.559C263.003 45.1319 263.429 45.3095 263.742 45.6243C264.056 45.9392 264.232 46.3656 264.231 46.81Z" fill="#7C35B4"/>
<path opacity="0.2" d="M264.32 66.8104V65.9192H249.381V45.1306H248.492V65.9192H231.371V49.8651C231.072 50.1004 230.776 50.3426 230.485 50.5917V65.9192H219.176C219.051 66.214 218.929 66.511 218.815 66.8104H230.485V84.2789H215.996C216.009 84.5782 216.03 84.873 216.055 85.1701H230.485V99.1061H219.674C219.807 99.4054 219.946 99.7001 220.093 99.9926H230.485V111.708H231.371V99.9926H248.492V111.708H249.381V99.9926H264.32V99.1061H249.381C249.381 97.2759 249.741 95.4635 250.441 93.7725C251.142 92.0816 252.168 90.5452 253.462 89.251C254.756 87.9569 256.293 86.9304 257.984 86.2301C259.675 85.5299 261.487 85.1697 263.317 85.1701H264.32V84.2789H249.381V66.8104H264.32ZM248.492 99.1061H231.371V85.1701H248.492V99.1061ZM248.492 84.2789H231.371V83.9293C231.371 81.6811 231.814 79.4549 232.675 77.3778C233.535 75.3008 234.796 73.4136 236.386 71.8239C237.976 70.2343 239.864 68.9733 241.941 68.1131C244.018 67.2529 246.244 66.8102 248.492 66.8104V84.2789Z" fill="black"/>
<path d="M262.636 99.3306C262.277 99.347 261.923 99.253 261.62 99.0612C261.317 98.8694 261.08 98.5892 260.942 98.2584C260.804 97.9276 260.771 97.5623 260.847 97.212C260.923 96.8617 261.105 96.5432 261.368 96.2999C261.412 96.1246 261.444 95.9988 261.488 95.8235C261.472 95.7854 261.457 95.7473 261.441 95.7092C259.831 91.8706 249.559 102.571 249.114 106.179C248.919 107.773 249.001 109.39 249.358 110.956C246.031 103.698 244.303 95.8093 244.292 87.8248C244.291 85.8212 244.403 83.8191 244.626 81.8279C244.81 80.1955 245.065 78.5748 245.392 76.9657C247.175 68.2348 251.004 60.0514 256.565 53.0877C259.744 53.2652 262.531 52.7808 262.8 46.618C262.848 45.5218 263.661 44.5726 263.84 43.4927C263.537 43.5325 263.228 43.5574 262.925 43.5773C262.83 43.5822 262.731 43.5872 262.636 43.5922L262.6 43.5938C262.267 43.6088 261.936 43.527 261.648 43.3583C261.359 43.1896 261.126 42.9412 260.976 42.643C260.825 42.3448 260.764 42.0094 260.8 41.6774C260.836 41.3453 260.967 41.0307 261.178 40.7714C261.309 40.6101 261.44 40.4489 261.571 40.2877C261.77 40.0389 261.974 39.795 262.173 39.5462C262.196 39.5226 262.218 39.4976 262.238 39.4715C262.467 39.1878 262.696 38.9092 262.925 38.6255C262.507 37.9769 261.945 37.4336 261.282 37.038C258.988 35.6943 255.823 36.6249 254.166 38.7002C252.504 40.7754 252.19 43.6868 252.767 46.2796C253.335 48.4859 254.274 50.5794 255.544 52.4706C255.42 52.6298 255.29 52.7841 255.166 52.9434C252.892 55.8679 250.909 59.0083 249.248 62.3195C249.718 58.647 243.969 45.3845 241.745 42.5753C239.075 39.201 233.598 40.6736 233.128 44.951C233.123 44.9925 233.119 45.0339 233.115 45.0753C233.445 45.2616 233.768 45.4593 234.084 45.6685C234.482 45.934 234.79 46.3133 234.968 46.7567C235.146 47.2002 235.186 47.6871 235.082 48.1536C234.979 48.6202 234.737 49.0447 234.388 49.3714C234.04 49.6981 233.6 49.9119 233.128 49.9847L233.08 49.9922C228.659 56.3038 242.83 72.7314 246.377 69.0429C244.708 73.7743 243.661 78.7027 243.262 83.7041C243.036 86.6548 243.05 89.619 243.302 92.5675L243.287 92.463C242.499 86.041 228.978 76.4927 225.03 77.2881C222.755 77.7462 220.515 77.6421 220.86 79.9364C220.866 79.973 220.871 80.0097 220.877 80.0463C221.49 80.2959 222.086 80.5834 222.663 80.9072C222.994 81.0936 223.317 81.2913 223.633 81.5004C224.031 81.7659 224.339 82.1452 224.517 82.5887C224.695 83.0321 224.735 83.519 224.631 83.9856C224.528 84.4522 224.286 84.8766 223.937 85.2034C223.589 85.5301 223.149 85.7439 222.677 85.8167L222.629 85.8241C222.594 85.8291 222.564 85.8341 222.529 85.8391C220.517 92.7626 235.439 103.936 244.511 100.381H244.516C245.415 104.288 246.718 108.09 248.403 111.728H262.288C262.337 111.573 262.382 111.414 262.427 111.26C261.142 111.341 259.852 111.264 258.585 111.031C259.615 109.767 260.645 108.493 261.676 107.229C261.699 107.205 261.72 107.18 261.74 107.154C262.263 106.507 262.79 105.865 263.313 105.218L263.313 105.217C263.341 103.234 263.113 101.256 262.636 99.3308L262.636 99.3306ZM246.736 68.0525L246.743 68.0426L246.736 68.0624V68.0525ZM243.66 95.7775L243.541 95.5088C243.546 95.3147 243.546 95.1206 243.541 94.9215C243.541 94.8667 243.531 94.812 243.531 94.7573C243.575 95.1006 243.615 95.4441 243.665 95.7874L243.66 95.7775Z" fill="#2F2E41"/>
</g>
<defs>
<clipPath id="clip0_125_49">
<rect width="400" height="316.92" fill="white"/>
</clipPath>
</defs>
</svg>
