<svg width="40" height="32" viewBox="0 0 40 32" fill="none" xmlns="http://www.w3.org/2000/svg">
<path d="M40 5.09507V28.2767C40 29.7834 38.78 31.0034 37.2733 31.0034H30.9083V15.5501L20 23.7334L9.09167 15.5501V31.0051H2.72667C2.36846 31.0051 2.01376 30.9345 1.68283 30.7974C1.35191 30.6602 1.05125 30.4592 0.798033 30.2059C0.544817 29.9525 0.344007 29.6517 0.207077 29.3207C0.0701473 28.9897 -0.000218446 28.6349 5.09419e-07 28.2767V5.09507C5.09419e-07 1.7234 3.84833 -0.201599 6.545 1.82173L9.09167 3.7334L20 11.9134L30.9083 3.73007L33.455 1.82173C36.15 -0.199932 40 1.7234 40 5.09507Z" fill="#7C35B4"/>
</svg>
