<svg width="40" height="40" viewBox="0 0 40 40" fill="none" xmlns="http://www.w3.org/2000/svg">
<g clip-path="url(#clip0_130_14)">
<path d="M29.12 23.9701C28.625 23.7217 26.19 22.5251 25.7366 22.3584C25.2816 22.1934 24.9516 22.1117 24.62 22.6084C24.2916 23.1034 23.3416 24.2184 23.0533 24.5484C22.765 24.8801 22.475 24.9201 21.98 24.6734C21.485 24.4234 19.8883 23.9017 17.9966 22.2151C16.525 20.9017 15.53 19.2801 15.2416 18.7834C14.9533 18.2884 15.2116 18.0201 15.4583 17.7734C15.6816 17.5517 15.955 17.1951 16.2016 16.9067C16.45 16.6167 16.5316 16.4101 16.6983 16.0784C16.8633 15.7484 16.7816 15.4601 16.6566 15.2117C16.5316 14.9634 15.5416 12.5251 15.13 11.5334C14.7266 10.5684 14.3183 10.7001 14.015 10.6834C13.7266 10.6701 13.3966 10.6667 13.065 10.6667C12.735 10.6667 12.1983 10.7901 11.745 11.2867C11.2916 11.7817 10.0116 12.9801 10.0116 15.4184C10.0116 17.8551 11.7866 20.2101 12.0333 20.5417C12.2816 20.8717 15.5266 25.8751 20.495 28.0201C21.6766 28.5301 22.5983 28.8351 23.3183 29.0617C24.505 29.4401 25.585 29.3867 26.4366 29.2584C27.3883 29.1167 29.3666 28.0601 29.78 26.9034C30.1933 25.7467 30.1933 24.7551 30.0683 24.5484C29.945 24.3417 29.6166 24.2184 29.12 23.9701ZM20.0833 36.3084H20.0766C17.1263 36.3086 14.2301 35.5154 11.6916 34.0117L11.09 33.6551L4.85497 35.2917L6.5183 29.2117L6.12664 28.5884C4.47737 25.9622 3.60487 22.9229 3.60997 19.8217C3.61164 10.7384 11.0033 3.3484 20.09 3.3484C24.49 3.3484 28.6266 5.06507 31.7366 8.1784C33.2711 9.7061 34.4873 11.5229 35.315 13.5238C36.1426 15.5247 36.5652 17.6698 36.5583 19.8351C36.5533 28.9184 29.1633 36.3084 20.0833 36.3084ZM34.105 5.8134C32.2686 3.96494 30.0837 2.4993 27.6768 1.5014C25.2699 0.503508 22.6889 -0.00679375 20.0833 6.82959e-05C9.15831 6.82959e-05 0.266637 8.89174 0.261637 19.8201C0.261637 23.3134 1.1733 26.7234 2.9083 29.7284L0.0949707 40.0001L10.6033 37.2434C13.5093 38.8266 16.7657 39.6563 20.075 39.6567H20.0833C31.0066 39.6567 39.9 30.7651 39.905 19.8351C39.913 17.2305 39.4046 14.6502 38.409 12.2435C37.4135 9.83668 35.9506 7.65119 34.105 5.8134Z" fill="#7C35B4"/>
</g>
<defs>
<clipPath id="clip0_130_14">
<rect width="40" height="40" fill="white"/>
</clipPath>
</defs>
</svg>
