<svg width="118" height="70" viewBox="0 0 118 70" fill="none" xmlns="http://www.w3.org/2000/svg">
<path d="M105.045 0.865266H65.0772V0.0415039H46.9545V0.865266H6.82233C6.4673 0.865266 6.11575 0.935193 5.78775 1.07106C5.45974 1.20692 5.16171 1.40606 4.91067 1.6571C4.65963 1.90814 4.46049 2.20617 4.32463 2.53418C4.18876 2.86218 4.11884 3.21373 4.11884 3.56876V58.2964C4.11883 59.0134 4.40367 59.701 4.91067 60.2081C5.41767 60.7151 6.10532 60.9999 6.82233 60.9999H105.045C105.762 60.9999 106.449 60.7151 106.956 60.2081C107.463 59.701 107.748 59.0134 107.748 58.2964V3.56876C107.748 3.21373 107.678 2.86218 107.542 2.53418C107.406 2.20617 107.207 1.90814 106.956 1.6571C106.705 1.40606 106.407 1.20692 106.079 1.07106C105.751 0.935193 105.4 0.865266 105.045 0.865266Z" fill="#3F3D56"/>
<path d="M104.124 5.64307H7.74335V60.0114H104.124V5.64307Z" fill="#FFBE18"/>
<path d="M55.8511 4.16038C56.397 4.16038 56.8396 3.71781 56.8396 3.17186C56.8396 2.62592 56.397 2.18335 55.8511 2.18335C55.3051 2.18335 54.8625 2.62592 54.8625 3.17186C54.8625 3.71781 55.3051 4.16038 55.8511 4.16038Z" fill="#FFBE18"/>
<path opacity="0.1" d="M76.5605 60.0116H7.74341V5.64331L76.5605 60.0116Z" fill="black"/>
<path d="M22.824 55.943C27.9406 55.943 32.0884 51.7952 32.0884 46.6787C32.0884 41.5621 27.9406 37.4143 22.824 37.4143C17.7074 37.4143 13.5596 41.5621 13.5596 46.6787C13.5596 51.7952 17.7074 55.943 22.824 55.943Z" fill="#F2F2F2"/>
<path d="M87.3421 34.9644H78.3392V36.8456H87.3421V34.9644Z" fill="#3F3D56"/>
<path d="M98.2263 20.3179H67.455V21.1241H98.2263V20.3179Z" fill="#3F3D56"/>
<path d="M98.2263 22.8708H67.455V23.6771H98.2263V22.8708Z" fill="#3F3D56"/>
<path d="M98.2263 25.4241H67.455V26.2303H98.2263V25.4241Z" fill="#3F3D56"/>
<path d="M98.2263 27.9771H67.455V28.7833H98.2263V27.9771Z" fill="#3F3D56"/>
<path d="M98.2263 30.53H67.455V31.3363H98.2263V30.53Z" fill="#3F3D56"/>
<path d="M98.2263 6.74609H94.4639V10.5085H98.2263V6.74609Z" fill="#F2F2F2"/>
<path d="M99.9732 12.2554H95.4045V7.68677H99.9732V12.2554ZM95.6031 12.0568H99.7745V7.88541H95.6031V12.0568Z" fill="#3F3D56"/>
<path d="M110.454 59.023H101.048V58.3453C101.048 58.3277 101.045 58.3102 101.038 58.2939C101.031 58.2776 101.021 58.2628 101.009 58.2503C100.996 58.2378 100.981 58.2279 100.965 58.2212C100.949 58.2144 100.931 58.2109 100.914 58.2109H97.6888C97.6712 58.2109 97.6537 58.2144 97.6374 58.2212C97.6211 58.2279 97.6063 58.2378 97.5938 58.2503C97.5813 58.2628 97.5714 58.2776 97.5647 58.2939C97.5579 58.3102 97.5545 58.3277 97.5545 58.3453V59.023H95.5389V58.3453C95.5389 58.3277 95.5354 58.3102 95.5286 58.2939C95.5219 58.2776 95.512 58.2628 95.4995 58.2503C95.487 58.2378 95.4722 58.2279 95.4559 58.2212C95.4396 58.2144 95.4222 58.2109 95.4045 58.2109H92.1796C92.1619 58.2109 92.1444 58.2144 92.1281 58.2212C92.1118 58.2279 92.097 58.2378 92.0845 58.2503C92.0721 58.2628 92.0622 58.2776 92.0554 58.2939C92.0487 58.3102 92.0452 58.3277 92.0452 58.3453V59.023H90.0296V58.3453C90.0296 58.3277 90.0261 58.3102 90.0194 58.2939C90.0126 58.2776 90.0027 58.2628 89.9902 58.2503C89.9778 58.2378 89.963 58.2279 89.9467 58.2212C89.9304 58.2144 89.9129 58.2109 89.8952 58.2109H86.6703C86.6526 58.2109 86.6352 58.2144 86.6189 58.2212C86.6026 58.2279 86.5878 58.2378 86.5753 58.2503C86.5628 58.2628 86.5529 58.2776 86.5462 58.2939C86.5394 58.3102 86.5359 58.3277 86.5359 58.3453V59.023H84.5203V58.3453C84.5203 58.3277 84.5169 58.3102 84.5101 58.2939C84.5033 58.2776 84.4934 58.2628 84.481 58.2503C84.4685 58.2378 84.4537 58.2279 84.4374 58.2212C84.4211 58.2144 84.4036 58.2109 84.386 58.2109H81.161C81.1434 58.2109 81.1259 58.2144 81.1096 58.2212C81.0933 58.2279 81.0785 58.2378 81.066 58.2503C81.0535 58.2628 81.0436 58.2776 81.0369 58.2939C81.0301 58.3102 81.0266 58.3277 81.0266 58.3453V59.023H79.0111V58.3453C79.0111 58.3277 79.0076 58.3102 79.0008 58.2939C78.9941 58.2776 78.9842 58.2628 78.9717 58.2503C78.9592 58.2378 78.9444 58.2279 78.9281 58.2212C78.9118 58.2144 78.8943 58.2109 78.8767 58.2109H75.6517C75.6341 58.2109 75.6166 58.2144 75.6003 58.2212C75.584 58.2279 75.5692 58.2378 75.5567 58.2503C75.5443 58.2628 75.5343 58.2776 75.5276 58.2939C75.5208 58.3102 75.5174 58.3277 75.5174 58.3453V59.023H73.5018V58.3453C73.5018 58.3277 73.4983 58.3102 73.4916 58.2939C73.4848 58.2776 73.4749 58.2628 73.4624 58.2503C73.4499 58.2378 73.4351 58.2279 73.4188 58.2212C73.4025 58.2144 73.3851 58.2109 73.3674 58.2109H70.1425C70.1248 58.2109 70.1073 58.2144 70.091 58.2212C70.0747 58.2279 70.0599 58.2378 70.0474 58.2503C70.035 58.2628 70.0251 58.2776 70.0183 58.2939C70.0116 58.3102 70.0081 58.3277 70.0081 58.3453V59.023H67.9925V58.3453C67.9925 58.3277 67.989 58.3102 67.9823 58.2939C67.9755 58.2776 67.9656 58.2628 67.9531 58.2503C67.9407 58.2378 67.9259 58.2279 67.9096 58.2212C67.8932 58.2144 67.8758 58.2109 67.8581 58.2109H42.5961C42.5785 58.2109 42.561 58.2144 42.5447 58.2212C42.5284 58.2279 42.5136 58.2378 42.5011 58.2503C42.4886 58.2628 42.4787 58.2776 42.472 58.2939C42.4652 58.3102 42.4617 58.3277 42.4617 58.3453V59.023H40.4461V58.3453C40.4461 58.3277 40.4427 58.3102 40.4359 58.2939C40.4292 58.2776 40.4193 58.2628 40.4068 58.2503C40.3943 58.2378 40.3795 58.2279 40.3632 58.2212C40.3469 58.2144 40.3294 58.2109 40.3118 58.2109H37.0868C37.0692 58.2109 37.0517 58.2144 37.0354 58.2212C37.0191 58.2279 37.0043 58.2378 36.9918 58.2503C36.9793 58.2628 36.9694 58.2776 36.9627 58.2939C36.9559 58.3102 36.9524 58.3277 36.9524 58.3453V59.023H34.9369V58.3453C34.9369 58.3277 34.9334 58.3102 34.9266 58.2939C34.9199 58.2776 34.91 58.2628 34.8975 58.2503C34.885 58.2378 34.8702 58.2279 34.8539 58.2212C34.8376 58.2144 34.8201 58.2109 34.8025 58.2109H31.5775C31.5599 58.2109 31.5424 58.2144 31.5261 58.2212C31.5098 58.2279 31.495 58.2378 31.4825 58.2503C31.47 58.2628 31.4602 58.2776 31.4534 58.2939C31.4466 58.3102 31.4432 58.3277 31.4432 58.3453V59.023H29.4276V58.3453C29.4276 58.3277 29.4241 58.3102 29.4174 58.2939C29.4106 58.2776 29.4007 58.2628 29.3882 58.2503C29.3758 58.2378 29.3609 58.2279 29.3446 58.2212C29.3283 58.2144 29.3109 58.2109 29.2932 58.2109H26.0683C26.0506 58.2109 26.0332 58.2144 26.0168 58.2212C26.0005 58.2279 25.9857 58.2378 25.9733 58.2503C25.9608 58.2628 25.9509 58.2776 25.9441 58.2939C25.9374 58.3102 25.9339 58.3277 25.9339 58.3453V59.023H23.9183V58.3453C23.9183 58.3277 23.9148 58.3102 23.9081 58.2939C23.9013 58.2776 23.8914 58.2628 23.879 58.2503C23.8665 58.2378 23.8517 58.2279 23.8354 58.2212C23.8191 58.2144 23.8016 58.2109 23.7839 58.2109H20.559C20.5414 58.2109 20.5239 58.2144 20.5076 58.2212C20.4913 58.2279 20.4765 58.2378 20.464 58.2503C20.4515 58.2628 20.4416 58.2776 20.4349 58.2939C20.4281 58.3102 20.4246 58.3277 20.4246 58.3453V59.023H18.409V58.3453C18.409 58.3277 18.4056 58.3102 18.3988 58.2939C18.3921 58.2776 18.3822 58.2628 18.3697 58.2503C18.3572 58.2378 18.3424 58.2279 18.3261 58.2212C18.3098 58.2144 18.2923 58.2109 18.2747 58.2109H15.0497C15.0321 58.2109 15.0146 58.2144 14.9983 58.2212C14.982 58.2279 14.9672 58.2378 14.9547 58.2503C14.9422 58.2628 14.9323 58.2776 14.9256 58.2939C14.9188 58.3102 14.9154 58.3277 14.9154 58.3453V59.023H12.8998V58.3453C12.8998 58.3277 12.8963 58.3102 12.8895 58.2939C12.8828 58.2776 12.8729 58.2628 12.8604 58.2503C12.8479 58.2378 12.8331 58.2279 12.8168 58.2212C12.8005 58.2144 12.783 58.2109 12.7654 58.2109H9.54045C9.5228 58.2109 9.50533 58.2144 9.48903 58.2212C9.47272 58.2279 9.45791 58.2378 9.44543 58.2503C9.43296 58.2628 9.42306 58.2776 9.41631 58.2939C9.40955 58.3102 9.40608 58.3277 9.40608 58.3453V59.023H3.22494C2.36963 59.023 1.54936 59.3628 0.944564 59.9676C0.339771 60.5724 8.14852e-07 61.3926 0 62.2479V63.7062C2.44456e-06 64.5615 0.339773 65.3818 0.944567 65.9866C1.54936 66.5914 2.36964 66.9311 3.22494 66.9311H110.454C111.31 66.9311 112.13 66.5914 112.735 65.9866C113.339 65.3818 113.679 64.5615 113.679 63.7062V62.2479C113.679 61.3926 113.339 60.5724 112.735 59.9676C112.13 59.3628 111.31 59.023 110.454 59.023Z" fill="#3F3D56"/>
<path d="M25.0665 52.4651C22.7573 52.4651 20.5001 51.7803 18.5801 50.4975C16.6601 49.2146 15.1637 47.3912 14.28 45.2578C13.3964 43.1244 13.1651 40.777 13.6156 38.5122C14.0661 36.2474 15.1781 34.1671 16.8109 32.5343C18.4437 30.9015 20.524 29.7896 22.7887 29.3391C25.0535 28.8886 27.401 29.1198 29.5343 30.0035C31.6677 30.8871 33.4911 32.3836 34.774 34.3035C36.0569 36.2235 36.7416 38.4808 36.7416 40.7899C36.7381 43.8853 35.5069 46.8529 33.3182 49.0416C31.1294 51.2304 28.1618 52.4616 25.0665 52.4651ZM25.0665 29.422C22.8181 29.422 20.6202 30.0887 18.7508 31.3378C16.8813 32.587 15.4243 34.3624 14.5639 36.4396C13.7035 38.5168 13.4783 40.8025 13.917 43.0077C14.3556 45.2128 15.4383 47.2384 17.0281 48.8282C18.618 50.4181 20.6435 51.5008 22.8487 51.9394C25.0538 52.378 27.3396 52.1529 29.4168 51.2925C31.494 50.4321 33.2694 48.975 34.5185 47.1056C35.7677 45.2361 36.4344 43.0383 36.4344 40.7899C36.431 37.776 35.2322 34.8865 33.101 32.7553C30.9699 30.6242 28.0804 29.4254 25.0665 29.422Z" fill="#3F3D56"/>
</svg>
